<?xml version="1.0" encoding="UTF-8"?>
<svg id="Layer_2" data-name="Layer 2" xmlns="http://www.w3.org/2000/svg" viewBox="0 0 32 32">
  <defs>
    <style>
      .cls-1 {
        fill: #445246;
      }

      .cls-1, .cls-2 {
        stroke-width: 0px;
      }

      .cls-2 {
        fill: #faf6ef;
      }
    </style>
  </defs>
  <g id="Layer_1-2" data-name="Layer 1">
    <rect class="cls-1" width="32" height="32"/>
    <g>
      <path class="cls-2" d="m15.3,10.21h6.31c-.04-.86-.75-1.54-1.62-1.54h-4.69c-3.29,0-5.97,2.68-5.97,5.97v2.91c0,.48-.39.87-.87.87s-.87-.39-.87-.87v-2.07c0-.65-.25-1.25-.72-1.71-.47-.46-1.09-.71-1.77-.71-.02,0-.03,0-.05,0-1.3.02-2.37,1.15-2.37,2.52v6.14c0,.87.69,1.58,1.54,1.62v-7.85c0-.5.41-.87.94-.87.48,0,.87.39.87.87v2.07c0,.72.32,1.4.88,1.87.56.46,1.29.64,2.02.5,1.12-.22,1.93-1.26,1.93-2.47v-2.81c0-2.44,1.98-4.42,4.42-4.42Z"/>
      <path class="cls-2" d="m15.16,15.22c-.66,0-1.28.26-1.73.74-.46.48-.7,1.12-.67,1.8.05,1.27,1.19,2.3,2.54,2.3h1.78c.48,0,.87.39.87.87s-.39.87-.87.87H6.63c-.43,0-.77.35-.77.77s.35.77.77.77h10.35c1.21,0,2.24-.81,2.46-1.93.14-.72-.04-1.45-.5-2.01-.46-.56-1.14-.88-1.86-.88h-1.91c-.49,0-.87-.39-.87-.89s.39-.87.87-.87h3.42c.87,0,1.58-.69,1.62-1.54h-5.03Z"/>
      <path class="cls-2" d="m23.58,11.96h-9.02c-.43,0-.77.35-.77.77s.35.77.77.77h9.02c2.31,0,4.19,1.88,4.19,4.19v3.79c0,.14-.12.26-.26.26h-2.37c-1.26,0-2.28-1.02-2.28-2.28v-1.76c0-.46.38-.84.84-.84s.84.38.84.84v.96c0,.87.69,1.58,1.54,1.62v-2.58c0-.71-.32-1.38-.87-1.84-.43-.35-.96-.54-1.52-.54-.16,0-.31.02-.47.05-1.1.21-1.91,1.24-1.91,2.43v1.66c0,2.11,1.72,3.82,3.82,3.82h2.37c.99,0,1.8-.81,1.8-1.8v-3.79c0-3.16-2.57-5.74-5.74-5.74Z"/>
    </g>
  </g>
</svg>