<?xml version="1.0" standalone="no"?>
<!DOCTYPE svg PUBLIC "-//W3C//DTD SVG 20010904//EN"
 "http://www.w3.org/TR/2001/REC-SVG-20010904/DTD/svg10.dtd">
<svg version="1.0" xmlns="http://www.w3.org/2000/svg"
 width="645.000000pt" height="170.000000pt" viewBox="0 0 645.000000 170.000000"
 preserveAspectRatio="xMidYMid meet">

<g transform="translate(0.000000,170.000000) scale(0.100000,-0.100000)"
fill="#000000" stroke="none">
<path d="M387 1639 c8 -8 19 -8 40 -1 28 10 28 10 -11 11 -29 1 -37 -2 -29
-10z"/>
<path d="M270 1630 c-12 -8 -12 -10 5 -10 11 0 27 5 35 10 12 8 12 10 -5 10
-11 0 -27 -5 -35 -10z"/>
<path d="M490 1630 c8 -5 22 -9 30 -9 10 0 8 3 -5 9 -27 12 -43 12 -25 0z"/>
<path d="M181 1562 c-86 -90 -104 -118 -98 -156 5 -38 64 -114 110 -143 23
-14 45 -30 48 -36 11 -17 -2 -82 -22 -103 -10 -11 -19 -24 -19 -29 0 -5 -6
-16 -14 -24 -8 -9 -17 -27 -20 -41 -2 -14 -12 -45 -21 -70 -24 -64 -21 -224 5
-315 9 -28 18 -69 24 -105 20 -110 22 -148 11 -210 -3 -19 -8 -51 -10 -70 -2
-19 -7 -53 -10 -75 -6 -36 -3 -44 32 -83 l38 -44 0 58 0 57 48 24 c26 13 47
30 47 37 0 8 6 16 13 19 20 8 50 107 50 166 0 64 -30 174 -44 165 -5 -3 -7 -9
-4 -14 3 -5 -13 -8 -34 -7 -25 1 -36 6 -30 12 16 16 10 26 -11 15 -25 -14 -40
-5 -41 23 -1 17 -2 18 -6 5 -2 -10 -9 -18 -14 -18 -11 0 9 41 25 52 16 11 28
10 21 -2 -9 -15 7 -12 29 5 20 15 20 15 0 15 -11 0 -24 4 -30 10 -5 5 -22 11
-37 12 -28 2 -35 12 -17 23 5 3 10 2 10 -4 0 -5 16 -8 36 -6 43 4 58 15 21 15
-35 0 -35 18 -1 31 32 12 34 10 41 -32 2 -18 9 -43 14 -56 12 -33 2 -46 -32
-41 -15 3 -26 1 -23 -4 3 -4 1 -8 -5 -8 -5 0 -12 6 -14 13 -4 9 -6 9 -6 0 -1
-19 12 -22 52 -13 31 6 37 5 37 -8 0 -12 3 -13 11 -5 8 8 3 40 -19 120 -16 59
-33 121 -36 137 -5 21 -10 26 -16 17 -5 -10 -16 -11 -36 -6 -16 5 -31 9 -34 9
-21 5 -41 24 -31 30 6 4 11 3 11 -1 0 -5 21 -9 47 -8 l46 0 40 120 c25 79 41
146 44 197 5 65 10 82 34 112 24 28 39 36 77 41 26 4 67 15 92 25 l45 19 -60
-5 c-52 -5 -62 -4 -78 14 -22 24 -15 42 16 43 12 0 17 3 10 5 -7 3 -10 11 -7
19 3 7 1 16 -5 20 -6 3 -9 0 -5 -8 9 -25 -13 -28 -48 -7 -44 26 -64 25 -84 -5
-9 -14 -20 -25 -25 -25 -17 0 -9 40 10 52 17 10 17 13 4 26 -10 11 -11 17 -3
22 8 5 4 9 -9 13 -25 6 -27 -8 -6 -29 13 -14 13 -17 0 -30 -8 -9 -15 -24 -15
-35 0 -10 -4 -19 -10 -19 -5 0 -10 6 -10 13 0 8 -4 7 -10 -3 -9 -13 -12 -13
-25 3 -7 11 -11 25 -8 33 3 8 0 14 -5 14 -6 0 -12 6 -15 13 -2 6 -2 -1 1 -18
7 -43 33 -75 55 -69 10 3 27 -2 37 -11 16 -14 17 -21 8 -39 -10 -19 -10 -20 5
-7 19 15 24 56 6 45 -7 -4 -10 -2 -8 5 3 7 9 12 14 12 6 0 13 9 17 20 7 19 42
26 65 11 6 -4 14 -25 18 -47 l8 -40 -26 23 c-28 26 -49 13 -23 -14 9 -8 16
-17 16 -19 0 -12 -25 -55 -32 -55 -4 0 -8 -5 -8 -11 0 -6 -6 -17 -14 -24 -12
-12 -15 -12 -20 1 -3 9 -7 30 -7 47 -2 29 -2 28 -8 -8 l-6 -40 -47 1 c-36 0
-54 6 -73 24 -30 28 -30 62 0 70 30 8 61 28 54 35 -4 3 -22 -3 -40 -14 -36
-22 -64 -28 -54 -11 3 6 -4 10 -16 10 -19 0 -21 4 -14 38 7 37 21 62 35 62 5
0 6 -9 3 -20 -6 -21 20 -29 32 -10 4 6 -1 7 -11 3 -14 -5 -16 -3 -10 12 4 11
2 21 -5 26 -9 5 3 22 37 53 27 25 45 46 40 46 -5 0 -34 -26 -65 -58z m143
-321 c4 -5 -3 -7 -14 -4 -23 6 -26 13 -6 13 8 0 17 -4 20 -9z m-9 -59 c-3 -3
-11 0 -18 7 -9 10 -8 11 6 5 10 -3 15 -9 12 -12z m20 -22 c3 -5 1 -10 -4 -10
-6 0 -11 5 -11 10 0 6 2 10 4 10 3 0 8 -4 11 -10z m-79 -45 c-11 -8 -25 -15
-30 -15 -6 1 0 7 14 15 32 19 40 18 16 0z m69 -3 c0 -6 -3 -12 -7 -12 -5 0 -8
3 -7 6 0 4 -5 11 -13 16 -9 7 -8 8 7 6 11 -2 20 -9 20 -16z m-45 -21 c0 -5 7
-8 16 -7 9 0 19 -5 21 -11 7 -20 -22 -15 -42 7 -10 11 -13 20 -7 20 7 0 12 -4
12 -9z m-37 -18 c-7 -2 -19 -2 -25 0 -7 3 -2 5 12 5 14 0 19 -2 13 -5z m35
-19 c12 -4 22 -13 22 -20 0 -19 -13 -17 -40 6 -24 21 -20 24 18 14z m-38 -29
c7 -8 21 -15 31 -15 11 0 19 -7 19 -15 0 -8 -4 -15 -9 -15 -5 0 -7 -10 -3 -22
4 -19 2 -20 -19 -14 -13 4 -29 8 -36 8 -7 1 -10 5 -7 9 2 4 -2 10 -8 13 -7 3
2 3 21 0 25 -5 32 -3 28 7 -2 8 -10 13 -16 11 -7 -1 -10 2 -6 8 3 5 1 10 -5
10 -6 0 -8 5 -4 11 4 8 -1 9 -17 4 -19 -5 -21 -4 -9 4 20 14 25 14 40 -4z
m-44 -74 c-7 -11 17 -21 50 -21 15 0 24 -6 24 -15 0 -8 -4 -15 -9 -15 -17 0
-91 47 -84 53 10 10 25 8 19 -2z m80 -121 c0 -24 -23 -26 -60 -7 -32 17 -28
21 21 24 33 2 39 -1 39 -17z m-94 -42 c-7 -7 -12 -8 -12 -2 0 14 12 26 19 19
2 -3 -1 -11 -7 -17z m108 -3 c0 -19 -56 -21 -63 -2 -3 9 6 14 29 15 25 2 34
-1 34 -13z m-92 -35 c-7 -10 -14 -17 -17 -15 -4 4 18 35 25 35 2 0 -1 -9 -8
-20z m22 -90 c-8 -5 -17 -7 -19 -4 -3 3 1 9 9 14 8 5 17 7 19 4 3 -3 -1 -9 -9
-14z m74 -111 c11 4 30 5 44 3 19 -4 22 -9 18 -28 -4 -16 -2 -24 7 -24 9 0 12
-19 12 -72 -1 -82 -19 -156 -40 -164 -16 -6 -48 20 -38 30 4 3 1 6 -5 6 -7 0
-12 9 -12 20 0 16 7 20 33 21 19 1 25 3 13 6 -11 3 -31 16 -45 29 l-25 23 38
-6 c36 -6 37 -5 25 15 -7 11 -18 18 -24 15 -7 -2 -15 2 -18 11 -3 8 1 17 9 20
9 3 12 1 9 -4 -3 -6 3 -10 14 -10 31 0 26 13 -13 36 -30 17 -32 20 -18 34 14
13 15 12 9 -4 -6 -14 -4 -17 9 -12 8 3 21 6 27 6 7 0 -9 11 -35 24 -26 13 -44
27 -40 32 4 4 0 3 -9 -4 -20 -15 -33 -4 -17 15 9 11 14 11 32 -6 14 -12 28
-16 40 -12z m-44 -34 c0 -8 -7 -15 -15 -15 -26 0 -18 20 13 29 1 1 2 -6 2 -14z
m10 -50 c0 -8 -4 -15 -10 -15 -5 0 -10 7 -10 15 0 8 5 15 10 15 6 0 10 -7 10
-15z m3 -56 c-17 -17 -37 -1 -22 17 8 10 15 12 23 4 7 -7 7 -13 -1 -21z m-9
-28 c3 -5 -1 -12 -10 -15 -20 -8 -29 -1 -19 13 8 13 22 14 29 2z m16 -31 c0
-5 -5 -10 -11 -10 -5 0 -7 5 -4 10 3 6 8 10 11 10 2 0 4 -4 4 -10z m-23 -26
c-3 -4 12 -24 34 -46 45 -44 43 -53 -15 -73 -40 -14 -52 -9 -33 13 9 13 9 14
0 8 -8 -4 -13 -2 -14 6 0 7 -4 4 -8 -7 -5 -12 -3 -24 4 -30 14 -12 8 -108 -6
-99 -5 3 -7 10 -4 15 4 5 1 9 -5 9 -7 0 -9 8 -5 20 4 12 2 20 -5 20 -6 0 -8 5
-5 10 4 6 9 22 11 37 3 14 14 39 24 54 22 30 26 49 9 49 -5 0 -7 5 -4 10 3 6
11 10 17 10 6 0 9 -3 5 -6z"/>
<path d="M240 264 c0 -8 -6 -14 -12 -15 -7 0 -2 -5 11 -10 18 -7 27 -6 33 3
12 20 10 25 -12 31 -13 3 -20 0 -20 -9z"/>
<path d="M555 1598 c11 -14 23 -24 27 -22 9 6 38 -37 32 -48 -3 -4 0 -8 5 -8
6 0 11 -20 11 -45 0 -25 -4 -45 -10 -45 -5 0 -10 -5 -10 -11 0 -8 5 -8 15 1
19 16 20 82 1 119 -8 15 -32 41 -52 56 l-38 29 19 -26z"/>
<path d="M737 1613 c-15 -14 -6 -23 23 -23 17 0 39 -9 50 -20 23 -23 24 -48
13 -363 l-6 -197 -34 0 c-23 0 -33 -5 -33 -15 0 -12 17 -15 95 -15 78 0 95 3
95 15 0 11 -11 15 -40 15 -37 0 -39 2 -46 37 -8 41 3 454 12 462 7 7 29 -18
143 -159 42 -52 129 -158 192 -234 l114 -140 7 45 c3 24 7 162 7 307 l1 262
40 0 c29 0 40 4 40 15 0 13 -16 15 -107 13 -74 -2 -108 -7 -111 -15 -2 -9 9
-13 37 -13 62 0 65 -11 69 -265 3 -193 2 -218 -11 -205 -21 22 -251 312 -327
413 l-65 86 -76 1 c-42 0 -79 -3 -82 -7z"/>
<path d="M425 1590 c11 -5 27 -9 35 -9 13 -1 13 0 0 9 -8 5 -24 9 -35 9 l-20
0 20 -9z"/>
<path d="M497 1580 c-3 -14 1 -24 14 -31 18 -9 19 -8 7 11 -11 17 -11 22 2 30
13 8 13 10 -1 10 -9 0 -19 -9 -22 -20z"/>
<path d="M358 1583 c6 -2 18 -2 25 0 6 3 1 5 -13 5 -14 0 -19 -2 -12 -5z"/>
<path d="M423 1553 c9 -2 23 -2 30 0 6 3 -1 5 -18 5 -16 0 -22 -2 -12 -5z"/>
<path d="M270 1530 c0 -5 5 -10 11 -10 5 0 7 5 4 10 -3 6 -8 10 -11 10 -2 0
-4 -4 -4 -10z"/>
<path d="M368 1533 c6 -2 18 -2 25 0 6 3 1 5 -13 5 -14 0 -19 -2 -12 -5z"/>
<path d="M491 1514 c9 -10 19 -26 22 -34 4 -10 6 -8 6 7 1 13 -8 27 -21 34
-22 11 -22 11 -7 -7z"/>
<path d="M580 1514 c0 -8 5 -12 10 -9 6 4 8 11 5 16 -9 14 -15 11 -15 -7z"/>
<path d="M548 1495 c2 -14 9 -25 16 -25 6 -1 0 -7 -14 -16 -25 -15 -25 -15 -1
-8 13 3 21 2 18 -3 -3 -5 4 -10 16 -10 12 -1 17 1 11 5 -5 4 -18 24 -27 45
-21 43 -26 47 -19 12z"/>
<path d="M469 1439 c-10 -6 -4 -9 19 -9 17 0 32 2 32 4 0 9 -39 13 -51 5z"/>
<path d="M180 1420 c-9 -6 -10 -10 -3 -10 6 0 15 5 18 10 8 12 4 12 -15 0z"/>
<path d="M498 1413 c7 -3 16 -2 19 1 4 3 -2 6 -13 5 -11 0 -14 -3 -6 -6z"/>
<path d="M5673 1382 c-12 -8 -40 -69 -132 -289 -26 -61 -49 -104 -59 -106 -10
-3 12 -5 48 -4 36 0 53 2 38 4 -23 4 -28 9 -28 32 0 15 5 42 11 60 l11 31 77
0 77 0 17 -47 c22 -62 22 -71 -5 -76 -13 -2 9 -4 47 -4 39 -1 63 1 53 4 -21 5
-39 43 -99 216 -31 88 -48 150 -44 164 6 25 5 26 -12 15z m6 -171 c11 -36 21
-69 21 -73 0 -4 -27 -8 -60 -8 -33 0 -60 2 -60 5 0 19 64 154 70 148 4 -4 17
-37 29 -72z"/>
<path d="M2857 1356 c-80 -30 -117 -90 -117 -193 0 -114 55 -184 144 -183 l41
1 -40 14 c-70 25 -105 87 -105 185 0 109 46 170 127 170 63 0 118 -33 143 -85
26 -53 26 -145 1 -200 -20 -46 -38 -62 -78 -76 -27 -9 -27 -9 5 -4 82 12 135
89 135 195 0 79 -28 142 -75 166 -43 22 -134 28 -181 10z"/>
<path d="M3264 1356 c-19 -8 -38 -28 -48 -51 -16 -32 -17 -44 -7 -77 11 -35
19 -42 85 -73 77 -37 99 -64 89 -106 -8 -31 -22 -49 -48 -59 -19 -8 -19 -9 3
-9 13 -1 36 12 53 28 23 24 29 38 29 73 0 59 -17 79 -97 117 -77 37 -83 43
-83 88 0 41 23 63 66 63 47 0 72 -15 88 -53 l14 -32 1 37 c1 32 -4 40 -29 53
-35 18 -75 19 -116 1z"/>
<path d="M4543 1356 c-97 -31 -147 -99 -147 -201 -1 -104 62 -176 153 -174 43
1 44 1 14 9 -79 18 -123 83 -123 180 0 108 68 180 171 180 58 0 109 -15 109
-32 0 -5 5 -6 10 -3 6 3 10 14 10 24 0 32 -116 42 -197 17z"/>
<path d="M5206 1358 c-52 -14 -121 -82 -135 -133 -24 -88 -8 -157 48 -210 28
-26 40 -30 106 -33 110 -6 204 30 180 68 -4 7 -14 1 -26 -14 -58 -74 -207 -46
-255 46 -21 41 -22 134 -1 174 20 38 70 82 103 90 42 11 132 -1 153 -20 18
-16 19 -16 23 8 4 20 0 25 -25 30 -43 9 -126 6 -171 -6z"/>
<path d="M1490 1350 c0 -5 9 -10 20 -10 28 0 31 -23 28 -195 l-3 -149 -25 -7
c-14 -4 40 -7 120 -6 129 2 145 4 148 20 3 15 0 16 -23 7 -14 -5 -59 -11 -98
-13 l-72 -2 -3 93 -3 92 75 0 75 0 4 -32 c2 -18 4 -4 4 32 1 41 -2 56 -6 40
-7 -24 -11 -25 -76 -25 l-70 0 -3 73 -3 74 92 -3 c66 -2 94 0 97 9 3 9 -32 12
-137 12 -87 0 -141 -4 -141 -10z"/>
<path d="M1840 1350 c0 -5 11 -10 24 -10 31 0 36 -19 36 -162 0 -66 5 -128 11
-142 14 -31 65 -56 111 -55 34 1 32 3 -15 13 -16 4 -36 20 -47 39 -17 28 -20
50 -20 170 l0 137 25 0 c14 0 25 5 25 10 0 6 -32 10 -75 10 -43 0 -75 -4 -75
-10z"/>
<path d="M2120 1350 c0 -5 11 -10 24 -10 30 0 36 -27 36 -169 0 -121 -10 -148
-60 -173 -38 -19 -26 -25 13 -7 49 22 62 62 65 212 4 127 5 137 23 137 10 0
19 5 19 10 0 6 -27 10 -60 10 -33 0 -60 -4 -60 -10z"/>
<path d="M2320 1350 c0 -5 9 -10 19 -10 27 0 33 -50 29 -215 -3 -128 -3 -129
-28 -136 -14 -4 12 -7 60 -7 54 1 72 3 50 7 l-35 6 -3 173 -2 172 30 0 c130 0
152 -177 23 -181 -21 -1 -28 -4 -17 -6 12 -2 26 -14 31 -26 6 -12 32 -50 58
-84 l47 -63 56 0 c56 1 56 1 27 14 -34 15 -121 99 -140 136 -13 24 -12 27 17
39 39 18 63 72 51 115 -5 17 -23 41 -42 53 -30 20 -47 23 -132 23 -59 0 -99
-4 -99 -10z"/>
<path d="M3500 1350 c0 -5 11 -10 25 -10 l25 0 0 -122 c0 -68 5 -140 11 -161
12 -46 58 -77 109 -76 l35 1 -32 9 c-17 5 -41 21 -52 35 -19 24 -21 40 -21
170 0 137 1 144 20 144 11 0 20 5 20 10 0 6 -30 10 -70 10 -40 0 -70 -4 -70
-10z"/>
<path d="M3780 1351 c0 -5 10 -11 22 -13 19 -2 24 -12 31 -58 5 -30 7 -94 5
-141 -5 -100 -21 -133 -71 -148 -21 -6 -25 -10 -12 -10 28 -1 62 24 80 59 11
22 15 64 15 165 l0 135 25 0 c14 0 25 5 25 10 0 6 -27 10 -60 10 -33 0 -60 -4
-60 -9z"/>
<path d="M3970 1350 c0 -5 11 -10 25 -10 l25 0 0 -174 c0 -173 0 -175 -22
-179 -13 -2 13 -4 57 -4 48 -1 68 2 50 6 l-30 6 -3 174 -2 174 41 -6 c126 -17
127 -175 1 -178 -26 0 -26 -1 -5 -9 12 -5 29 -22 37 -38 8 -16 33 -52 56 -80
40 -51 41 -52 93 -51 l52 1 -31 13 c-31 14 -97 80 -130 130 -16 24 -16 29 -4
33 35 12 70 60 70 97 0 82 -39 105 -180 105 -60 0 -100 -4 -100 -10z"/>
<path d="M4845 1350 c3 -5 15 -10 26 -10 17 0 19 -8 21 -102 5 -248 6 -241
-22 -249 -15 -4 5 -7 50 -7 45 0 65 3 50 7 l-25 7 -3 172 -2 172 25 0 c14 0
25 5 25 10 0 6 -32 10 -76 10 -47 0 -73 -4 -69 -10z"/>
<path d="M5900 1350 c0 -5 9 -10 20 -10 28 0 31 -24 28 -195 l-3 -149 -25 -7
c-14 -4 39 -7 118 -8 78 -1 142 1 142 3 0 2 3 12 7 21 5 15 3 16 -15 6 -11 -6
-52 -14 -92 -17 -56 -6 -74 -4 -81 7 -5 8 -9 87 -9 177 l0 162 35 0 c19 0 35
5 35 10 0 6 -33 10 -80 10 -47 0 -80 -4 -80 -10z"/>
<path d="M4615 1160 c-4 -6 8 -10 28 -10 31 0 35 -4 41 -31 12 -62 7 -97 -16
-113 -29 -20 -6 -21 32 -1 29 15 30 19 30 80 0 63 1 65 25 65 14 0 25 5 25 10
0 6 -33 10 -79 10 -44 0 -83 -4 -86 -10z"/>
<path d="M3190 1046 c0 -41 28 -66 75 -66 l30 0 -35 18 c-24 12 -37 27 -44 50
-12 42 -26 41 -26 -2z"/>
<path d="M1045 740 c-15 -6 -52 -83 -144 -301 -68 -162 -128 -305 -135 -319
-7 -16 -21 -26 -39 -28 -15 -2 -27 -9 -27 -18 0 -11 20 -14 100 -14 82 0 100
3 100 15 0 11 -11 15 -40 15 -40 0 -40 0 -39 38 0 20 10 64 22 97 l22 60 125
3 125 3 33 -93 c18 -51 32 -96 32 -100 0 -5 -16 -8 -35 -8 -24 0 -35 -5 -35
-15 0 -12 19 -15 110 -15 89 0 110 3 110 14 0 9 -12 16 -27 18 -38 4 -63 57
-168 358 -72 206 -84 249 -75 269 13 28 11 31 -15 21z m10 -289 l44 -131 -105
0 c-57 0 -104 4 -104 8 0 5 18 51 41 103 22 52 47 109 55 128 8 19 17 32 19
29 3 -3 25 -64 50 -137z"/>
<path d="M3271 388 c-21 -46 -58 -132 -82 -192 -28 -71 -50 -111 -61 -114 -38
-10 -15 -22 42 -22 33 0 60 4 60 10 0 6 -11 10 -25 10 -20 0 -25 5 -25 25 0
14 7 41 14 60 l15 35 73 0 74 0 22 -60 21 -60 -24 0 c-14 0 -25 -4 -25 -10 0
-13 127 -13 135 0 3 6 -3 10 -14 10 -11 0 -24 8 -30 18 -24 47 -122 339 -118
354 3 10 1 18 -5 18 -5 0 -26 -37 -47 -82z m48 -87 c11 -36 21 -69 21 -73 0
-4 -27 -8 -61 -8 -33 0 -59 3 -57 8 2 4 17 39 33 79 17 39 33 69 36 65 4 -4
16 -36 28 -71z"/>
<path d="M1525 455 c-5 -2 -23 -6 -38 -9 -52 -12 -87 -113 -54 -157 7 -9 44
-32 83 -52 39 -20 74 -43 78 -52 12 -33 5 -66 -19 -90 -26 -27 -12 -34 21 -10
47 32 56 122 16 158 -10 9 -43 28 -75 42 -32 15 -65 37 -73 50 -20 31 -10 81
18 96 44 24 128 -11 128 -53 0 -10 5 -18 10 -18 21 0 11 59 -12 74 -25 15 -67
26 -83 21z"/>
<path d="M1813 448 c-45 -12 -73 -51 -73 -102 0 -53 23 -79 98 -112 32 -14 63
-32 70 -41 20 -27 14 -72 -13 -98 -17 -18 -20 -25 -9 -25 24 0 62 45 69 83 11
57 -10 87 -88 125 -37 18 -74 44 -83 57 -20 31 -10 81 18 96 44 24 128 -11
128 -53 0 -10 5 -18 10 -18 6 0 10 13 10 30 0 49 -67 77 -137 58z"/>
<path d="M2184 451 c-94 -23 -144 -93 -144 -201 0 -76 26 -137 69 -163 16 -9
58 -19 93 -22 60 -4 61 -4 18 5 -85 18 -128 72 -137 168 -7 74 9 131 48 167
26 26 38 30 85 29 96 0 147 -56 152 -169 5 -91 -20 -154 -71 -179 -18 -8 -25
-16 -16 -16 24 0 81 42 106 78 28 42 38 125 23 182 -16 61 -76 120 -121 120
-19 0 -43 2 -54 4 -11 3 -34 1 -51 -3z"/>
<path d="M2663 450 c-113 -24 -173 -97 -173 -210 0 -95 38 -148 120 -170 53
-14 128 -6 188 20 44 20 48 26 33 49 -7 11 -11 9 -21 -8 -26 -49 -127 -66
-190 -32 -131 69 -109 294 33 332 49 13 121 5 154 -16 22 -15 23 -14 23 10 0
18 -5 25 -19 25 -10 0 -38 2 -62 4 -24 3 -63 1 -86 -4z"/>
<path d="M4405 455 c-5 -2 -23 -6 -38 -9 -52 -12 -87 -113 -54 -157 7 -9 44
-32 83 -52 39 -20 74 -43 78 -52 12 -33 5 -66 -19 -90 -26 -27 -12 -34 21 -10
47 32 56 122 16 158 -10 9 -43 28 -75 42 -32 15 -65 37 -73 50 -20 31 -10 81
18 96 44 24 128 -11 128 -53 0 -10 5 -18 10 -18 21 0 11 59 -12 74 -25 15 -67
26 -83 21z"/>
<path d="M6066 450 c-60 -11 -122 -52 -151 -100 -30 -53 -29 -173 3 -218 36
-50 76 -66 162 -66 80 1 160 30 160 59 0 20 -17 28 -24 10 -10 -27 -69 -55
-117 -55 -78 0 -149 65 -163 148 -8 53 17 131 51 164 54 50 161 61 220 23 22
-15 23 -14 23 10 0 19 -5 25 -22 25 -13 0 -39 2 -58 4 -19 3 -57 1 -84 -4z"/>
<path d="M2915 440 c-4 -6 5 -10 19 -10 l26 0 0 -175 c0 -168 -1 -175 -20
-175 -11 0 -20 -4 -20 -10 0 -6 30 -10 70 -10 40 0 70 4 70 10 0 6 -11 10 -25
10 l-25 0 0 175 0 175 26 0 c14 0 23 4 19 10 -3 6 -35 10 -70 10 -35 0 -67 -4
-70 -10z"/>
<path d="M3530 441 c0 -5 -3 -18 -7 -28 -6 -16 -5 -16 10 -5 9 8 43 16 77 19
l60 6 0 -177 0 -176 -25 0 c-14 0 -25 -4 -25 -10 0 -6 33 -10 80 -10 47 0 80
4 80 10 0 6 -13 10 -29 10 -21 0 -30 6 -35 23 -9 35 -7 300 3 316 9 14 86 12
124 -4 13 -5 17 -2 17 14 0 21 -4 21 -165 21 -94 0 -165 -4 -165 -9z"/>
<path d="M3920 441 c0 -5 10 -11 23 -13 22 -3 22 -5 25 -176 l2 -172 -25 0
c-14 0 -25 -4 -25 -10 0 -6 53 -10 139 -10 120 0 140 2 145 16 9 23 6 24 -39
14 -22 -5 -64 -10 -92 -10 -62 0 -66 6 -61 115 3 80 5 81 94 70 48 -6 53 -9
57 -33 3 -19 4 -14 6 15 0 23 4 48 7 57 3 9 1 16 -5 16 -6 0 -11 -9 -11 -20 0
-18 -7 -20 -75 -20 l-75 0 0 77 0 76 95 -6 c80 -5 95 -4 95 8 0 13 -23 15
-140 15 -80 0 -140 -4 -140 -9z"/>
<path d="M4900 441 c0 -5 10 -11 23 -13 22 -3 22 -5 25 -176 l2 -172 -25 0
c-14 0 -25 -4 -25 -10 0 -6 53 -10 139 -10 120 0 140 2 145 16 9 23 3 26 -28
14 -15 -5 -56 -10 -91 -10 -48 0 -64 4 -69 16 -8 20 -8 181 1 267 6 66 6 67
34 67 16 0 29 5 29 10 0 6 -33 10 -80 10 -44 0 -80 -4 -80 -9z"/>
<path d="M5400 440 c0 -5 8 -10 19 -10 25 0 27 -17 23 -198 l-4 -152 -24 0
c-13 0 -24 -4 -24 -10 0 -6 53 -10 140 -10 130 0 140 1 150 20 10 19 9 20 -17
13 -15 -4 -59 -8 -98 -8 l-70 0 -3 173 -2 172 35 0 c19 0 35 5 35 10 0 6 -33
10 -80 10 -47 0 -80 -4 -80 -10z"/>
<path d="M1410 129 c0 -36 3 -41 35 -55 19 -7 49 -14 67 -13 33 1 33 1 -7 10
-45 10 -75 40 -75 75 0 13 -4 24 -10 24 -5 0 -10 -18 -10 -41z"/>
<path d="M1730 129 c0 -36 3 -41 35 -55 19 -7 49 -14 67 -13 33 1 33 1 -7 10
-45 10 -75 40 -75 75 0 13 -4 24 -10 24 -5 0 -10 -18 -10 -41z"/>
<path d="M4290 129 c0 -36 3 -41 35 -55 19 -7 49 -14 67 -13 33 1 33 1 -7 10
-45 10 -75 40 -75 75 0 13 -4 24 -10 24 -5 0 -10 -18 -10 -41z"/>
<path d="M4617 103 c-14 -13 -7 -32 14 -38 16 -6 20 -13 17 -36 -5 -33 6 -38
22 -10 15 29 12 49 -10 71 -21 21 -32 24 -43 13z"/>
<path d="M5263 94 c-8 -20 9 -36 30 -28 21 8 22 30 1 38 -22 8 -24 8 -31 -10z"/>
<path d="M5760 95 c-10 -11 -10 -19 -2 -27 15 -15 44 -2 40 19 -4 23 -22 27
-38 8z"/>
<path d="M6341 101 c-19 -12 -6 -43 16 -39 10 2 18 12 18 22 0 22 -14 29 -34
17z"/>
</g>
</svg>
